Coordinates
version=1
nRows=12
nColumns=24
inDegrees=yes

Units are S.I. units (second, meters, Newtons, ...)
Angles are in degrees.

endheader
time	pelvis_tilt	pelvis_list	pelvis_rotation	pelvis_tx	pelvis_ty	pelvis_tz	hip_flexion_r	hip_adduction_r	hip_rotation_r	knee_angle_r	ankle_angle_r	subtalar_angle_r	mtp_angle_r	hip_flexion_l	hip_adduction_l	hip_rotation_l	knee_angle_l	ankle_angle_l	subtalar_angle_l	mtp_angle_l	lumbar_extension	lumbar_bending	lumbar_rotation
      3.49000000	    -19.43121143	      3.62212804	     -8.39111980	     -1.91962400	     -0.05125969	     -0.34416403	      0.84785674	     -1.35977173	      0.63819338	    -16.84075967	     12.92285379	     -0.65487729	     -0.99213362	     48.59311339	     -4.32323167	    -18.61820222	    -14.20175674	     -3.52653457	      5.93100768	     23.78312093	     18.19825397	     -2.41455443	      0.01585274
      3.49500000	    -19.37874307	      3.90151258	     -8.49153745	     -1.91152106	     -0.05192416	     -0.34442860	      0.76392581	     -1.79707337	      0.80776996	    -17.65315219	     12.29058584	     -0.54553565	     -0.98557824	     48.54942559	     -4.18475523	    -18.67821178	    -14.92170132	     -4.21217203	      5.24637286	     23.63794440	     18.36608213	     -2.70686257	      0.15878892
      3.50000000	    -19.31412028	      4.18208806	     -8.52015861	     -1.90335851	     -0.05252425	     -0.34487661	      0.71310551	     -2.26541401	      0.73167992	    -18.53890653	     11.59102516	     -0.31434554	     -0.75334127	     48.49020943	     -3.95843269	    -18.60879728	    -15.63536470	     -5.07522071	      4.25316366	     23.46018013	     18.52223450	     -3.01229133	      0.24649871
      3.50500000	    -19.30633476	      4.53036770	     -8.56857902	     -1.89507491	     -0.05305754	     -0.34518832	      0.74530018	     -2.76635967	      0.84645692	    -19.43341147	     10.75268669	     -0.32674642	     -0.55849280	     48.48118556	     -3.72402736	    -18.72883567	    -16.36593676	     -6.03640873	      3.32772686	     23.23554731	     18.77712993	     -3.38500950	      0.33674187
      3.51000000	    -19.29646684	      4.83534879	     -8.55261917	     -1.88687750	     -0.05353993	     -0.34577100	      0.85419273	     -3.26743124	      0.63301143	    -20.43828609	      9.82667970	     -0.17257911	      0.14855564	     48.48650973	     -3.42455876	    -18.56358969	    -17.09569339	     -7.09345045	      2.04184526	     22.87334067	     18.99413563	     -3.70934413	      0.41617940
      3.51500000	    -19.32174767	      5.19376746	     -8.53776891	     -1.87857433	     -0.05392558	     -0.34629712	      1.02576780	     -3.80396794	      0.53151013	    -21.44268506	      8.71973339	     -0.23160475	      1.08520098	     48.52639761	     -3.09289748	    -18.48602949	    -17.84491302	     -8.13187728	      0.80147225	     22.33401221	     19.28255149	     -4.08882161	      0.45486461
      3.52000000	    -19.37826047	      5.59801512	     -8.42229329	     -1.87010127	     -0.05422427	     -0.34690222	      1.22702927	     -4.39226297	      0.31036443	    -22.39099805	      7.35766562	     -0.54833648	      3.02755291	     48.59173625	     -2.64256519	    -18.31692991	    -18.60541508	     -9.04350476	     -0.23183781	     21.32578027	     19.62936255	     -4.54606398	      0.45120894
      3.52500000	    -19.43452509	      5.97437410	     -8.36742632	     -1.86186079	     -0.05445173	     -0.34751862	      1.55615407	     -4.94201305	      0.19694735	    -23.56564026	      6.04779607	     -0.69006278	      3.77011042	     48.68077034	     -2.23675577	    -18.08348967	    -19.38281104	     -9.91877489	     -1.52187468	     20.53716265	     19.93668488	     -4.94699661	      0.44060095
      3.53000000	    -19.52629521	      6.40405648	     -8.22643087	     -1.85349901	     -0.05465117	     -0.34823342	      1.95955163	     -5.56351897	     -0.09895433	    -24.75766025	      4.53545486	     -1.04171186	      5.30472488	     48.79983009	     -1.69873055	    -17.66364498	    -20.18215413	    -10.52404238	     -2.60353871	     19.19943732	     20.30236232	     -5.42388052	      0.41312329
      3.53500000	    -19.59361994	      6.80382821	     -8.12675785	     -1.84518913	     -0.05468866	     -0.34896814	      2.39249428	     -6.15555574	     -0.29746831	    -25.99628957	      2.85106970	     -1.39921664	      6.62757662	     48.89282618	     -1.19491037	    -17.30309659	    -20.99866804	    -10.98794915	     -3.73866593	     17.91015630	     20.63101730	     -5.84705086	      0.40340618
      3.54000000	    -19.60870060	      7.23906682	     -8.03204876	     -1.83688797	     -0.05460696	     -0.34964193	      2.82492532	     -6.77967476	     -0.44935689	    -27.24998347	      0.96130591	     -2.09605840	      8.66349345	     48.91211453	     -0.64190976	    -16.85066506	    -21.84065034	    -11.07421114	     -4.48597768	     16.13866485	     20.90811816	     -6.31625285	      0.47249096
      3.54500000	    -19.71687933	      7.66335974	     -7.84496440	     -1.82850161	     -0.05458373	     -0.35049021	      3.39526970	     -7.41475928	     -0.76305925	    -28.60231462	     -0.97065104	     -2.55082250	      9.93172869	     49.01715030	     -0.01968840	    -16.36719427	    -22.64132016	    -11.11785003	     -5.42515541	     14.82702555	     21.28952847	     -6.78458028	      0.40330380
